<svg width="24" height="25" viewBox="0 0 24 25" fill="none" xmlns="http://www.w3.org/2000/svg">
<path d="M21.75 10.9015C21.75 11.3155 21.414 11.6515 21 11.6515H19.25V13.4015C19.25 13.8155 18.914 14.1515 18.5 14.1515C18.086 14.1515 17.75 13.8155 17.75 13.4015V11.6515H16C15.586 11.6515 15.25 11.3155 15.25 10.9015C15.25 10.4875 15.586 10.1515 16 10.1515H17.75V8.40149C17.75 7.98749 18.086 7.65149 18.5 7.65149C18.914 7.65149 19.25 7.98749 19.25 8.40149V10.1515H21C21.414 10.1515 21.75 10.4875 21.75 10.9015ZM10.009 11.3735C12.215 11.3735 14.009 9.57954 14.009 7.37354C14.009 5.16754 12.215 3.37354 10.009 3.37354C7.80303 3.37354 6.00903 5.16754 6.00903 7.37354C6.00903 9.57954 7.80303 11.3735 10.009 11.3735ZM12 13.3735H8C3.94 13.3735 2.5 16.3466 2.5 18.8926C2.5 21.1696 3.71105 22.3735 6.00305 22.3735H13.9969C16.2889 22.3735 17.5 21.1696 17.5 18.8926C17.5 16.3466 16.06 13.3735 12 13.3735Z" fill="#B80808"/>
</svg>
